<svg width="71" height="70" viewBox="0 0 71 70" fill="none" xmlns="http://www.w3.org/2000/svg">
<path d="M9.25 35C9.25 20.5025 21.0025 8.75 35.5 8.75C49.9975 8.75 61.75 20.5025 61.75 35C61.75 49.4975 49.9975 61.25 35.5 61.25C21.0025 61.25 9.25 49.4975 9.25 35Z" fill="#E9DEFF"/>
<circle cx="35.4999" cy="29.1667" r="11.6667" fill="black"/>
<path fill-rule="evenodd" clip-rule="evenodd" d="M54.9931 56.0295C55.0278 56.1248 55.0003 56.2316 54.9239 56.2984C52.5781 58.3524 49.7443 59.8655 46.6098 60.6506C44.2169 61.25 41.3113 61.25 35.5002 61.25C29.689 61.25 26.7834 61.25 24.3906 60.6506C21.2561 59.8655 18.4225 58.3525 16.0767 56.2986C16.0003 56.2318 15.9728 56.125 16.0075 56.0297C18.5984 48.9144 26.3457 43.75 35.5003 43.75C44.6548 43.75 52.4021 48.9143 54.9931 56.0295Z" fill="black"/>
</svg>
