<svg width="24" height="25" viewBox="0 0 24 25" fill="none" xmlns="http://www.w3.org/2000/svg">
<path fill-rule="evenodd" clip-rule="evenodd" d="M3.17157 3.67157C2 4.84315 2 6.72876 2 10.5V14.5C2 18.2712 2 20.1569 3.17157 21.3284C3.82496 21.9818 4.70043 22.2708 6.00121 22.3986C6.066 19.684 8.72694 17.5 12 17.5C15.2731 17.5 17.934 19.684 17.9988 22.3986C19.2996 22.2708 20.175 21.9818 20.8284 21.3284C22 20.1569 22 18.2712 22 14.5V10.5C22 6.72876 22 4.84315 20.8284 3.67157C19.6569 2.5 17.7712 2.5 14 2.5H10C6.22876 2.5 4.34315 2.5 3.17157 3.67157ZM12 13.5C13.6569 13.5 15 12.1569 15 10.5C15 8.84315 13.6569 7.5 12 7.5C10.3431 7.5 9 8.84315 9 10.5C9 12.1569 10.3431 13.5 12 13.5Z" fill="#7E869E" fill-opacity="0.25"/>
<path d="M17.9407 21.7989C17.7395 20.6146 17.0355 19.5298 15.9565 18.7411C14.8775 17.9524 13.495 17.5122 12.0599 17.5002C10.6247 17.4883 9.23198 17.9055 8.13433 18.676C7.03668 19.4466 6.30685 20.5196 6.07726 21.7002" stroke="#222222" stroke-width="1.2"/>
<circle cx="12" cy="10.5" r="3" stroke="#222222" stroke-width="1.2" stroke-linecap="round"/>
<rect x="2.6" y="3.1" width="18.8" height="18.8" rx="3.4" stroke="#222222" stroke-width="1.2"/>
</svg>
