<svg width="50" height="50" viewBox="0 0 50 50" fill="none" xmlns="http://www.w3.org/2000/svg">
<path d="M10.4166 26.5825C10.4166 23.7539 10.4166 22.3395 10.9884 21.0963C11.5602 19.8531 12.6341 18.9327 14.7817 17.0918L16.8651 15.3061C20.747 11.9787 22.6879 10.3151 25 10.3151C27.312 10.3151 29.2529 11.9787 33.1349 15.3061L35.2182 17.0918C37.3659 18.9327 38.4397 19.8531 39.0115 21.0963C39.5833 22.3395 39.5833 23.7539 39.5833 26.5825V35.4167C39.5833 39.345 39.5833 41.3092 38.3629 42.5296C37.1425 43.75 35.1783 43.75 31.25 43.75H18.75C14.8216 43.75 12.8574 43.75 11.637 42.5296C10.4166 41.3092 10.4166 39.345 10.4166 35.4167V26.5825Z" stroke="#222222"/>
<path d="M30.2083 43.75V32.25C30.2083 31.6977 29.7606 31.25 29.2083 31.25H20.7916C20.2393 31.25 19.7916 31.6977 19.7916 32.25V43.75" stroke="#222222" stroke-linecap="round" stroke-linejoin="round"/>
</svg>
