<svg width="213" height="227" viewBox="0 0 213 227" fill="none" xmlns="http://www.w3.org/2000/svg">
<path d="M39.9375 70.9375L75.4375 52.0208V146.604L48.8125 160.792H39.9375V70.9375Z" fill="#E9DEFF" fill-opacity="0.69"/>
<path d="M173.062 146.604L137.562 165.521V70.9375L164.188 56.75H173.062V146.604Z" fill="#E9DEFF"/>
<path d="M173.062 146.334V52.7705C173.062 52.4309 172.701 52.2137 172.401 52.3734L137.727 70.8499C137.622 70.906 137.498 70.918 137.384 70.8832L75.6158 52.0751C75.5016 52.0404 75.3783 52.0523 75.2731 52.1085L40.1759 70.8105C40.0292 70.8887 39.9375 71.0414 39.9375 71.2076V164.771C39.9375 165.111 40.2994 165.328 40.5991 165.168L75.2731 146.692C75.3783 146.636 75.5016 146.624 75.6158 146.658L137.384 165.467C137.498 165.501 137.622 165.489 137.727 165.433L172.824 146.731C172.971 146.653 173.062 146.5 173.062 146.334Z" stroke="#222222"/>
<path d="M137.562 165.521V70.9375" stroke="#222222"/>
<path d="M75.4375 146.604V52.0208" stroke="#222222"/>
</svg>
