<svg width="76" height="93" viewBox="0 0 76 93" fill="none" xmlns="http://www.w3.org/2000/svg">
<path d="M9.77158 53.5122C7.60276 49.0889 7.60276 43.9111 9.77158 39.4878V39.4878C10.6029 37.7924 12.1434 36.5531 13.9775 36.1042L18.4933 34.999C18.6253 34.9667 18.6913 34.9506 18.7527 34.9266C18.8992 34.8695 19.0302 34.7787 19.135 34.6614C19.1789 34.6123 19.2172 34.5561 19.2937 34.4438L31.9109 15.9164C33.1067 14.1605 33.7045 13.2826 34.2689 13.4565C34.8333 13.6304 34.8333 14.6926 34.8333 16.817L34.8333 76.183C34.8333 78.3074 34.8333 79.3696 34.2689 79.5435C33.7045 79.7174 33.1067 78.8395 31.9109 77.0836L19.2937 58.5562C19.2172 58.4439 19.1789 58.3877 19.135 58.3386C19.0302 58.2213 18.8992 58.1305 18.7527 58.0734C18.6913 58.0494 18.6253 58.0333 18.4933 58.001L13.9775 56.8958C12.1434 56.4469 10.6029 55.2076 9.77158 53.5122V53.5122Z" stroke="#8C52FF" stroke-width="2"/>
<path d="M49.1958 32.7998C52.1499 36.4146 53.8167 41.3116 53.8332 46.4237C53.8497 51.5358 52.2144 56.4486 49.2837 60.0918" stroke="#8C52FF" stroke-width="2" stroke-linecap="round"/>
<path d="M62.2467 24.5797C66.9732 30.3634 69.6401 38.1985 69.6665 46.3779C69.6928 54.5572 67.0764 62.4178 62.3873 68.2469" stroke="#8C52FF" stroke-width="2" stroke-linecap="round"/>
</svg>
