<svg width="71" height="70" viewBox="0 0 71 70" fill="none" xmlns="http://www.w3.org/2000/svg">
<path d="M9.25 35C9.25 20.5025 21.0025 8.75 35.5 8.75C49.9975 8.75 61.75 20.5025 61.75 35C61.75 49.4975 49.9975 61.25 35.5 61.25C21.0025 61.25 9.25 49.4975 9.25 35Z" fill="#E9DEFF"/>
<circle cx="35.5" cy="29.1667" r="11.6667" fill="black"/>
<path fill-rule="evenodd" clip-rule="evenodd" d="M54.993 56.0295C55.0277 56.1248 55.0001 56.2316 54.9238 56.2984C52.5779 58.3524 49.7442 59.8655 46.6096 60.6506C44.2168 61.25 41.3112 61.25 35.5 61.25C29.6889 61.25 26.7833 61.25 24.3904 60.6506C21.256 59.8655 18.4223 58.3525 16.0765 56.2986C16.0002 56.2318 15.9727 56.125 16.0074 56.0297C18.5983 48.9144 26.3456 43.75 35.5002 43.75C44.6547 43.75 52.402 48.9143 54.993 56.0295Z" fill="black"/>
</svg>
