<svg width="38" height="38" viewBox="0 0 38 38" fill="none" xmlns="http://www.w3.org/2000/svg">
<path fill-rule="evenodd" clip-rule="evenodd" d="M22.3468 4.96763V4.96765L22.4553 6.05272C22.6186 7.68625 22.7003 8.50302 23.2531 8.732C23.806 8.96099 24.4412 8.4412 25.7118 7.40162L26.5558 6.71112C27.2216 6.1664 27.5544 5.89405 27.9393 5.91324C28.3241 5.93243 28.6282 6.23656 29.2365 6.84482L31.1551 8.76347C31.7634 9.37172 32.0675 9.67585 32.0867 10.0607C32.1059 10.4455 31.8336 10.7784 31.2888 11.4442L30.5983 12.2882C29.5587 13.5588 29.0389 14.194 29.2679 14.7469C29.4969 15.2997 30.3137 15.3814 31.9472 15.5447L33.0324 15.6532C33.8883 15.7388 34.3163 15.7816 34.5748 16.0673C34.8334 16.353 34.8334 16.7831 34.8334 17.6433V20.3567C34.8334 21.2169 34.8334 21.647 34.5748 21.9327C34.3163 22.2184 33.8883 22.2612 33.0324 22.3468H33.0324L31.9478 22.4552C30.3143 22.6186 29.4975 22.7002 29.2685 23.2531C29.0395 23.8059 29.5593 24.4412 30.5989 25.7118L31.2889 26.5551C31.8336 27.2209 32.106 27.5538 32.0868 27.9386C32.0676 28.3234 31.7635 28.6276 31.1552 29.2358L29.2366 31.1545C28.6283 31.7627 28.3242 32.0668 27.9393 32.086C27.5545 32.1052 27.2216 31.8329 26.5559 31.2882L25.7119 30.5977C24.4413 29.5581 23.806 29.0383 23.2532 29.2673C22.7004 29.4963 22.6187 30.313 22.4554 31.9466L22.3468 33.0323V33.0323C22.2612 33.8883 22.2184 34.3162 21.9327 34.5748C21.647 34.8333 21.2169 34.8333 20.3567 34.8333H17.6433C16.7831 34.8333 16.353 34.8333 16.0673 34.5748C15.7816 34.3162 15.7388 33.8883 15.6533 33.0323L15.5447 31.9472C15.3814 30.3136 15.2997 29.4969 14.7469 29.2679C14.1941 29.0389 13.5588 29.5587 12.2882 30.5983L11.4441 31.2889C10.7784 31.8336 10.4455 32.1059 10.0606 32.0868C9.67581 32.0676 9.37168 31.7634 8.76343 31.1552L8.76342 31.1552L6.84477 29.2365C6.23652 28.6283 5.93239 28.3241 5.9132 27.9393C5.894 27.5545 6.16636 27.2216 6.71107 26.5558L7.40164 25.7118C8.44122 24.4412 8.96101 23.8059 8.73202 23.2531C8.50304 22.7003 7.68627 22.6186 6.05273 22.4553L4.96768 22.3468H4.96766C4.11174 22.2612 3.68378 22.2184 3.42523 21.9327C3.16669 21.647 3.16669 21.2169 3.16669 20.3567L3.16669 17.6433C3.16669 16.7831 3.16669 16.353 3.42523 16.0673C3.68378 15.7816 4.11175 15.7388 4.96768 15.6532L6.05333 15.5447C7.68687 15.3813 8.50363 15.2996 8.73262 14.7468C8.9616 14.194 8.44181 13.5587 7.40224 12.2881L6.71114 11.4434C6.16643 10.7777 5.89408 10.4448 5.91327 10.06C5.93246 9.67513 6.23659 9.371 6.84484 8.76275L8.7635 6.8441C9.37175 6.23584 9.67588 5.93172 10.0607 5.91252C10.4455 5.89333 10.7784 6.16569 11.4442 6.7104L12.2883 7.401C13.5589 8.44058 14.1941 8.96037 14.747 8.73138C15.2998 8.5024 15.3815 7.68563 15.5448 6.05209L15.6533 4.96765C15.7388 4.11172 15.7816 3.68375 16.0673 3.4252C16.353 3.16666 16.7831 3.16666 17.6433 3.16666H20.3567C21.2169 3.16666 21.647 3.16666 21.9327 3.4252C22.2184 3.68375 22.2612 4.11171 22.3468 4.96763ZM19 25.3333C22.4978 25.3333 25.3334 22.4978 25.3334 19C25.3334 15.5022 22.4978 12.6667 19 12.6667C15.5022 12.6667 12.6667 15.5022 12.6667 19C12.6667 22.4978 15.5022 25.3333 19 25.3333Z" fill="#E9DEFF"/>
<path d="M22.3468 4.96765H21.7468V4.99757L21.7498 5.02735L22.3468 4.96765ZM22.3468 4.96763H22.9468V4.9377L22.9438 4.90793L22.3468 4.96763ZM22.4553 6.05272L23.0523 5.99301V5.99301L22.4553 6.05272ZM23.2531 8.732L23.4827 8.17768H23.4827L23.2531 8.732ZM25.7118 7.40162L26.0918 7.866L25.7118 7.40162ZM26.5558 6.71112L26.1759 6.24674V6.24674L26.5558 6.71112ZM27.9393 5.91324L27.9094 6.5125L27.9393 5.91324ZM29.2365 6.84482L28.8122 7.26908V7.26908L29.2365 6.84482ZM31.1551 8.76347L31.5794 8.3392V8.3392L31.1551 8.76347ZM32.0867 10.0607L32.686 10.0308V10.0308L32.0867 10.0607ZM31.2888 11.4442L30.8245 11.0642L31.2888 11.4442ZM30.5983 12.2882L30.1339 11.9082L30.5983 12.2882ZM31.9472 15.5447L31.8875 16.1417H31.8875L31.9472 15.5447ZM33.0324 15.6532L33.0921 15.0562L33.0324 15.6532ZM34.5748 16.0673L35.0197 15.6647L35.0197 15.6647L34.5748 16.0673ZM34.5748 21.9327L35.0197 22.3353L35.0197 22.3353L34.5748 21.9327ZM33.0324 22.3468V22.9468H33.0623L33.0921 22.9438L33.0324 22.3468ZM33.0324 22.3468V21.7468H33.0024L32.9727 21.7497L33.0324 22.3468ZM31.9478 22.4552L31.8881 21.8582H31.8881L31.9478 22.4552ZM30.5989 25.7118L30.1345 26.0917L30.5989 25.7118ZM31.2889 26.5551L31.7533 26.1752H31.7533L31.2889 26.5551ZM32.0868 27.9386L32.686 27.9685V27.9685L32.0868 27.9386ZM31.1552 29.2358L31.5795 29.6601L31.1552 29.2358ZM29.2366 31.1545L28.8123 30.7302L29.2366 31.1545ZM26.5559 31.2882L26.9358 30.8238V30.8238L26.5559 31.2882ZM25.7119 30.5977L25.332 31.062L25.7119 30.5977ZM22.4554 31.9466L21.8583 31.8869L22.4554 31.9466ZM22.3468 33.0323L21.7498 32.9726L21.7468 33.0024V33.0323H22.3468ZM22.3468 33.0323L22.9438 33.092L22.9468 33.0623V33.0323H22.3468ZM21.9327 34.5748L22.3353 35.0196L22.3353 35.0196L21.9327 34.5748ZM16.0673 34.5748L15.6647 35.0196L15.6647 35.0196L16.0673 34.5748ZM15.6533 33.0323L15.0562 33.092V33.092L15.6533 33.0323ZM15.5447 31.9472L16.1418 31.8875L15.5447 31.9472ZM12.2882 30.5983L12.6681 31.0626L12.2882 30.5983ZM11.4441 31.2889L11.8241 31.7533L11.4441 31.2889ZM10.0606 32.0868L10.0308 32.686L10.0606 32.0868ZM8.76343 31.1552L8.31189 31.5503L8.32504 31.5653L8.33917 31.5795L8.76343 31.1552ZM8.76342 31.1552L9.21497 30.7601L9.20181 30.745L9.18769 30.7309L8.76342 31.1552ZM6.84477 29.2365L7.26904 28.8123L6.84477 29.2365ZM5.9132 27.9393L5.31394 27.9692L5.9132 27.9393ZM6.71107 26.5558L7.17545 26.9358H7.17545L6.71107 26.5558ZM7.40164 25.7118L6.93727 25.3319L7.40164 25.7118ZM8.73202 23.2531L8.17769 23.4827L8.73202 23.2531ZM6.05273 22.4553L6.11244 21.8582H6.11244L6.05273 22.4553ZM4.96768 22.3468L5.02738 21.7497L4.99761 21.7468H4.96768V22.3468ZM4.96766 22.3468L4.90796 22.9438L4.93774 22.9468H4.96766V22.3468ZM3.42523 21.9327L3.87011 21.5301H3.87011L3.42523 21.9327ZM3.16669 20.3567H2.56669H3.16669ZM3.16669 17.6433H3.76669H3.16669ZM3.42523 16.0673L2.98036 15.6647L2.98036 15.6647L3.42523 16.0673ZM4.96768 15.6532L4.90798 15.0562H4.90798L4.96768 15.6532ZM6.05333 15.5447L6.11303 16.1417H6.11303L6.05333 15.5447ZM7.40224 12.2881L7.86661 11.9082L7.40224 12.2881ZM6.71114 11.4434L6.24677 11.8234L6.24677 11.8234L6.71114 11.4434ZM6.84484 8.76275L6.42058 8.33849H6.42058L6.84484 8.76275ZM8.7635 6.8441L9.18776 7.26836V7.26836L8.7635 6.8441ZM11.4442 6.7104L11.8241 6.24602L11.4442 6.7104ZM12.2883 7.401L11.9083 7.86538L12.2883 7.401ZM15.5448 6.05209L16.1418 6.1118V6.1118L15.5448 6.05209ZM15.6533 4.96765L15.0562 4.90795V4.90795L15.6533 4.96765ZM16.0673 3.4252L15.6647 2.98033L15.6647 2.98033L16.0673 3.4252ZM21.9327 3.4252L21.5301 3.87008V3.87008L21.9327 3.4252ZM22.9468 4.96765V4.96763H21.7468V4.96765H22.9468ZM23.0523 5.99301L22.9438 4.90795L21.7498 5.02735L21.8583 6.11242L23.0523 5.99301ZM23.4827 8.17768C23.4765 8.17509 23.3863 8.15549 23.29 7.77268C23.1935 7.38903 23.136 6.83006 23.0523 5.99301L21.8583 6.11242C21.9379 6.9089 22.0029 7.57509 22.1263 8.06545C22.2499 8.55666 22.4769 9.05993 23.0235 9.28633L23.4827 8.17768ZM25.3319 6.93725C24.6808 7.46994 24.2449 7.82453 23.9054 8.02757C23.5666 8.23016 23.489 8.18026 23.4827 8.17768L23.0235 9.28633C23.5701 9.51273 24.0865 9.31743 24.5213 9.05748C24.9552 8.79797 25.4723 8.37288 26.0918 7.866L25.3319 6.93725ZM26.1759 6.24674L25.3319 6.93725L26.0918 7.866L26.9357 7.17549L26.1759 6.24674ZM27.9692 5.31399C27.6073 5.29594 27.3049 5.42354 27.0354 5.59158C26.7805 5.75056 26.4963 5.98454 26.1759 6.24674L26.9357 7.17549C27.281 6.89298 27.4962 6.71842 27.6703 6.60984C27.8299 6.51033 27.8864 6.51135 27.9094 6.5125L27.9692 5.31399ZM29.6607 6.42055C29.368 6.12777 29.1085 5.86667 28.8706 5.68312C28.6192 5.48909 28.331 5.33203 27.9692 5.31399L27.9094 6.5125C27.9324 6.51364 27.9886 6.51824 28.1375 6.63315C28.3 6.75851 28.4968 6.95361 28.8122 7.26908L29.6607 6.42055ZM31.5794 8.3392L29.6607 6.42055L28.8122 7.26908L30.7309 9.18773L31.5794 8.3392ZM32.686 10.0308C32.6679 9.66897 32.5109 9.38074 32.3168 9.1293C32.1333 8.89143 31.8722 8.63199 31.5794 8.3392L30.7309 9.18773C31.0463 9.5032 31.2414 9.69994 31.3668 9.86241C31.4817 10.0113 31.4863 10.0676 31.4875 10.0906L32.686 10.0308ZM31.7532 11.8241C32.0154 11.5036 32.2494 11.2195 32.4084 10.9645C32.5764 10.6951 32.704 10.3926 32.686 10.0308L31.4875 10.0906C31.4886 10.1136 31.4896 10.17 31.3901 10.3296C31.2815 10.5037 31.107 10.7189 30.8245 11.0642L31.7532 11.8241ZM31.0627 12.6681L31.7532 11.8241L30.8245 11.0642L30.1339 11.9082L31.0627 12.6681ZM29.8222 14.5173C29.8197 14.511 29.7698 14.4334 29.9723 14.0946C30.1754 13.7551 30.53 13.3192 31.0627 12.6681L30.1339 11.9082C29.627 12.5277 29.2019 13.0448 28.9424 13.4787C28.6825 13.9135 28.4872 14.4299 28.7136 14.9765L29.8222 14.5173ZM32.0069 14.9477C31.1699 14.864 30.6109 14.8065 30.2272 14.71C29.8444 14.6137 29.8248 14.5235 29.8222 14.5173L28.7136 14.9765C28.94 15.5231 29.4433 15.7501 29.9345 15.8737C30.4248 15.9971 31.091 16.0621 31.8875 16.1417L32.0069 14.9477ZM33.0921 15.0562L32.0069 14.9477L31.8875 16.1417L32.9727 16.2502L33.0921 15.0562ZM35.0197 15.6647C34.7766 15.3961 34.4725 15.2725 34.1631 15.2007C33.8704 15.1329 33.5041 15.0974 33.0921 15.0562L32.9727 16.2502C33.4166 16.2946 33.6922 16.3234 33.8921 16.3697C34.0753 16.4122 34.1145 16.4528 34.1299 16.4699L35.0197 15.6647ZM35.4334 17.6433C35.4334 17.2292 35.4345 16.8612 35.3961 16.5632C35.3555 16.2482 35.2628 15.9333 35.0197 15.6647L34.1299 16.4699C34.1454 16.487 34.1819 16.53 34.206 16.7166C34.2322 16.9201 34.2334 17.1972 34.2334 17.6433H35.4334ZM35.4334 20.3567V17.6433H34.2334V20.3567H35.4334ZM35.0197 22.3353C35.2628 22.0667 35.3555 21.7518 35.3961 21.4368C35.4345 21.1388 35.4334 20.7707 35.4334 20.3567H34.2334C34.2334 20.8028 34.2322 21.0799 34.206 21.2834C34.1819 21.47 34.1454 21.513 34.1299 21.5301L35.0197 22.3353ZM33.0921 22.9438C33.5041 22.9026 33.8704 22.8671 34.1631 22.7992C34.4725 22.7275 34.7766 22.6039 35.0197 22.3353L34.1299 21.5301C34.1145 21.5472 34.0753 21.5878 33.8921 21.6303C33.6922 21.6766 33.4166 21.7053 32.9727 21.7497L33.0921 22.9438ZM33.0324 22.9468H33.0324V21.7468H33.0324V22.9468ZM32.0075 23.0522L33.0921 22.9438L32.9727 21.7497L31.8881 21.8582L32.0075 23.0522ZM29.8228 23.4827C29.8254 23.4764 29.845 23.3863 30.2278 23.29C30.6115 23.1934 31.1704 23.1359 32.0075 23.0522L31.8881 21.8582C31.0916 21.9378 30.4254 22.0029 29.9351 22.1262C29.4439 22.2498 28.9406 22.4769 28.7142 23.0234L29.8228 23.4827ZM31.0633 25.3318C30.5306 24.6807 30.176 24.2448 29.9729 23.9053C29.7704 23.5665 29.8203 23.4889 29.8228 23.4827L28.7142 23.0234C28.4878 23.57 28.6831 24.0865 28.943 24.5212C29.2025 24.9551 29.6276 25.4722 30.1345 26.0917L31.0633 25.3318ZM31.7533 26.1752L31.0633 25.3318L30.1345 26.0917L30.8245 26.9351L31.7533 26.1752ZM32.686 27.9685C32.7041 27.6067 32.5765 27.3042 32.4084 27.0347C32.2495 26.7798 32.0155 26.4956 31.7533 26.1752L30.8245 26.9351C31.107 27.2804 31.2816 27.4955 31.3902 27.6697C31.4897 27.8293 31.4887 27.8857 31.4875 27.9087L32.686 27.9685ZM31.5795 29.6601C31.8723 29.3673 32.1334 29.1078 32.3169 28.87C32.5109 28.6185 32.668 28.3303 32.686 27.9685L31.4875 27.9087C31.4864 27.9317 31.4818 27.988 31.3669 28.1369C31.2415 28.2993 31.0464 28.4961 30.7309 28.8115L31.5795 29.6601ZM29.6608 31.5787L31.5795 29.6601L30.7309 28.8115L28.8123 30.7302L29.6608 31.5787ZM27.9692 32.6853C28.3311 32.6672 28.6193 32.5102 28.8707 32.3162C29.1086 32.1326 29.368 31.8715 29.6608 31.5787L28.8123 30.7302C28.4968 31.0457 28.3001 31.2408 28.1376 31.3661C27.9887 31.481 27.9325 31.4856 27.9095 31.4868L27.9692 32.6853ZM26.1759 31.7525C26.4964 32.0147 26.7805 32.2487 27.0355 32.4077C27.305 32.5757 27.6074 32.7033 27.9692 32.6853L27.9095 31.4868C27.8864 31.4879 27.83 31.489 27.6704 31.3894C27.4963 31.2809 27.2811 31.1063 26.9358 30.8238L26.1759 31.7525ZM25.332 31.062L26.1759 31.7525L26.9358 30.8238L26.0919 30.1333L25.332 31.062ZM23.4828 29.8216C23.489 29.819 23.5667 29.7691 23.9055 29.9717C24.245 30.1747 24.6809 30.5293 25.332 31.062L26.0919 30.1333C25.4723 29.6264 24.9553 29.2013 24.5213 28.9418C24.0866 28.6818 23.5702 28.4865 23.0236 28.7129L23.4828 29.8216ZM23.0524 32.0063C23.1361 31.1692 23.1936 30.6102 23.2901 30.2266C23.3864 29.8438 23.4766 29.8242 23.4828 29.8216L23.0236 28.7129C22.477 28.9393 22.2499 29.4426 22.1264 29.9338C22.003 30.4242 21.938 31.0904 21.8583 31.8869L23.0524 32.0063ZM22.9438 33.092L23.0524 32.0063L21.8583 31.8869L21.7498 32.9726L22.9438 33.092ZM22.9468 33.0323V33.0323H21.7468V33.0323H22.9468ZM22.3353 35.0196C22.6039 34.7766 22.7275 34.4725 22.7993 34.1631C22.8671 33.8704 22.9026 33.504 22.9438 33.092L21.7498 32.9726C21.7054 33.4166 21.6766 33.6921 21.6303 33.892C21.5878 34.0753 21.5472 34.1144 21.5301 34.1299L22.3353 35.0196ZM20.3567 35.4333C20.7708 35.4333 21.1388 35.4345 21.4368 35.3961C21.7518 35.3555 22.0667 35.2627 22.3353 35.0196L21.5301 34.1299C21.513 34.1454 21.47 34.1819 21.2835 34.2059C21.0799 34.2322 20.8029 34.2333 20.3567 34.2333V35.4333ZM17.6433 35.4333H20.3567V34.2333H17.6433V35.4333ZM15.6647 35.0196C15.9333 35.2627 16.2482 35.3555 16.5632 35.3961C16.8612 35.4345 17.2293 35.4333 17.6433 35.4333V34.2333C17.1972 34.2333 16.9201 34.2322 16.7166 34.2059C16.53 34.1819 16.487 34.1454 16.4699 34.1299L15.6647 35.0196ZM15.0562 33.092C15.0974 33.504 15.1329 33.8704 15.2008 34.1631C15.2725 34.4725 15.3961 34.7766 15.6647 35.0196L16.4699 34.1299C16.4529 34.1144 16.4122 34.0753 16.3698 33.892C16.3234 33.6921 16.2947 33.4166 16.2503 32.9726L15.0562 33.092ZM14.9477 32.0069L15.0562 33.092L16.2503 32.9726L16.1418 31.8875L14.9477 32.0069ZM14.5173 29.8222C14.5235 29.8248 14.6137 29.8444 14.71 30.2272C14.8065 30.6109 14.864 31.1698 14.9477 32.0069L16.1418 31.8875C16.0621 31.091 15.9971 30.4248 15.8737 29.9344C15.7502 29.4432 15.5231 28.94 14.9765 28.7136L14.5173 29.8222ZM12.6681 31.0626C13.3192 30.53 13.7551 30.1754 14.0946 29.9723C14.4334 29.7697 14.5111 29.8196 14.5173 29.8222L14.9765 28.7136C14.4299 28.4872 13.9135 28.6825 13.4788 28.9424C13.0448 29.2019 12.5278 29.627 11.9082 30.1339L12.6681 31.0626ZM11.8241 31.7533L12.6681 31.0626L11.9082 30.1339L11.0642 30.8245L11.8241 31.7533ZM10.0308 32.686C10.3926 32.7041 10.695 32.5765 10.9645 32.4084C11.2195 32.2494 11.5036 32.0155 11.8241 31.7533L11.0642 30.8245C10.7189 31.107 10.5037 31.2816 10.3296 31.3902C10.17 31.4897 10.1135 31.4886 10.0905 31.4875L10.0308 32.686ZM8.33917 31.5795C8.63195 31.8722 8.8914 32.1333 9.12927 32.3169C9.3807 32.5109 9.66893 32.668 10.0308 32.686L10.0905 31.4875C10.0675 31.4864 10.0113 31.4818 9.86237 31.3669C9.69991 31.2415 9.50316 31.0464 9.1877 30.7309L8.33917 31.5795ZM8.31188 31.5503L8.31189 31.5503L9.21498 30.7601L9.21497 30.7601L8.31188 31.5503ZM6.42051 29.6608L8.33916 31.5794L9.18769 30.7309L7.26904 28.8123L6.42051 29.6608ZM5.31394 27.9692C5.33199 28.331 5.48905 28.6193 5.68307 28.8707C5.86663 29.1086 6.12773 29.368 6.42051 29.6608L7.26904 28.8123C6.95357 28.4968 6.75847 28.3001 6.6331 28.1376C6.5182 27.9887 6.5136 27.9324 6.51245 27.9094L5.31394 27.9692ZM6.2467 26.1759C5.9845 26.4964 5.75052 26.7805 5.59154 27.0355C5.4235 27.3049 5.2959 27.6074 5.31394 27.9692L6.51245 27.9094C6.51131 27.8864 6.51028 27.83 6.6098 27.6704C6.71838 27.4963 6.89293 27.2811 7.17545 26.9358L6.2467 26.1759ZM6.93727 25.3319L6.2467 26.1759L7.17545 26.9358L7.86602 26.0918L6.93727 25.3319ZM8.17769 23.4827C8.18028 23.4889 8.23018 23.5666 8.02759 23.9054C7.82455 24.2449 7.46996 24.6808 6.93727 25.3319L7.86602 26.0918C8.3729 25.4722 8.79799 24.9552 9.05749 24.5212C9.31745 24.0865 9.51275 23.5701 9.28635 23.0235L8.17769 23.4827ZM5.99303 23.0523C6.83008 23.136 7.38905 23.1935 7.7727 23.29C8.15551 23.3863 8.17511 23.4765 8.17769 23.4827L9.28635 23.0235C9.05995 22.4769 8.55668 22.2498 8.06547 22.1263C7.57511 22.0029 6.90892 21.9379 6.11244 21.8582L5.99303 23.0523ZM4.90798 22.9438L5.99303 23.0523L6.11244 21.8582L5.02738 21.7497L4.90798 22.9438ZM4.96766 22.9468H4.96768V21.7468H4.96766V22.9468ZM2.98036 22.3353C3.22345 22.6039 3.52753 22.7275 3.8369 22.7992C4.1296 22.8671 4.49596 22.9026 4.90796 22.9438L5.02736 21.7497C4.58344 21.7053 4.30787 21.6766 4.10796 21.6303C3.92474 21.5878 3.88557 21.5472 3.87011 21.5301L2.98036 22.3353ZM2.56669 20.3567C2.56669 20.7707 2.56552 21.1388 2.60393 21.4368C2.64452 21.7518 2.73728 22.0667 2.98036 22.3353L3.87011 21.5301C3.85464 21.513 3.81813 21.47 3.79408 21.2834C3.76785 21.0799 3.76669 20.8028 3.76669 20.3567H2.56669ZM2.56669 17.6433L2.56669 20.3567H3.76669L3.76669 17.6433H2.56669ZM2.98036 15.6647C2.73728 15.9333 2.64452 16.2482 2.60393 16.5632C2.56552 16.8612 2.56669 17.2292 2.56669 17.6433H3.76669C3.76669 17.1972 3.76785 16.9201 3.79408 16.7166C3.81813 16.53 3.85464 16.487 3.87011 16.4699L2.98036 15.6647ZM4.90798 15.0562C4.49597 15.0974 4.12961 15.1329 3.83691 15.2007C3.52753 15.2725 3.22345 15.3961 2.98036 15.6647L3.87011 16.4699C3.88557 16.4528 3.92474 16.4122 4.10796 16.3697C4.30787 16.3234 4.58345 16.2946 5.02738 16.2502L4.90798 15.0562ZM5.99363 14.9476L4.90798 15.0562L5.02738 16.2502L6.11303 16.1417L5.99363 14.9476ZM8.17829 14.5172C8.17571 14.5234 8.1561 14.6136 7.7733 14.7099C7.38964 14.8064 6.83068 14.8639 5.99363 14.9476L6.11303 16.1417C6.90952 16.062 7.5757 15.997 8.06606 15.8737C8.55727 15.7501 9.06054 15.523 9.28695 14.9764L8.17829 14.5172ZM6.93786 12.6681C7.47056 13.3191 7.82515 13.755 8.02818 14.0946C8.23077 14.4333 8.18087 14.511 8.17829 14.5172L9.28695 14.9764C9.51335 14.4298 9.31805 13.9134 9.05809 13.4787C8.79858 13.0447 8.37349 12.5277 7.86661 11.9082L6.93786 12.6681ZM6.24677 11.8234L6.93786 12.6681L7.86661 11.9082L7.17552 11.0635L6.24677 11.8234ZM5.31401 10.0301C5.29597 10.3919 5.42357 10.6943 5.59161 10.9638C5.75059 11.2188 5.98457 11.5029 6.24677 11.8234L7.17552 11.0635C6.893 10.7182 6.71845 10.503 6.60987 10.3289C6.51036 10.1693 6.51138 10.1129 6.51253 10.0899L5.31401 10.0301ZM6.42058 8.33849C6.1278 8.63127 5.8667 8.89072 5.68315 9.12859C5.48912 9.38002 5.33206 9.66826 5.31401 10.0301L6.51253 10.0899C6.51367 10.0668 6.51827 10.0106 6.63317 9.86169C6.75854 9.69923 6.95364 9.50248 7.26911 9.18701L6.42058 8.33849ZM8.33923 6.41984L6.42058 8.33849L7.26911 9.18701L9.18776 7.26836L8.33923 6.41984ZM10.0308 5.31327C9.669 5.33131 9.38076 5.48838 9.12933 5.6824C8.89146 5.86596 8.63202 6.12705 8.33923 6.41984L9.18776 7.26836C9.50323 6.95289 9.69997 6.7578 9.86244 6.63243C10.0113 6.51752 10.0676 6.51293 10.0906 6.51178L10.0308 5.31327ZM11.8241 6.24602C11.5037 5.98382 11.2195 5.74984 10.9646 5.59086C10.6951 5.42282 10.3926 5.29522 10.0308 5.31327L10.0906 6.51178C10.1136 6.51063 10.17 6.50961 10.3296 6.60913C10.5038 6.71771 10.7189 6.89226 11.0642 7.17477L11.8241 6.24602ZM12.6682 6.93663L11.8241 6.24602L11.0642 7.17477L11.9083 7.86538L12.6682 6.93663ZM14.5174 8.17706C14.5111 8.17964 14.4335 8.22954 14.0947 8.02695C13.7552 7.82391 13.3193 7.46932 12.6682 6.93663L11.9083 7.86538C12.5278 8.37226 13.0449 8.79735 13.4788 9.05686C13.9136 9.31681 14.43 9.51211 14.9766 9.28571L14.5174 8.17706ZM14.9478 5.99239C14.8641 6.82944 14.8066 7.38841 14.7101 7.77206C14.6138 8.15487 14.5236 8.17448 14.5174 8.17706L14.9766 9.28571C15.5232 9.05931 15.7502 8.55604 15.8738 8.06483C15.9972 7.57447 16.0622 6.90828 16.1418 6.1118L14.9478 5.99239ZM15.0562 4.90795L14.9478 5.99239L16.1418 6.1118L16.2503 5.02735L15.0562 4.90795ZM15.6647 2.98033C15.3961 3.22342 15.2725 3.5275 15.2008 3.83688C15.1329 4.12958 15.0974 4.49594 15.0562 4.90795L16.2503 5.02735C16.2947 4.58342 16.3234 4.30784 16.3698 4.10793C16.4122 3.92471 16.4529 3.88554 16.4699 3.87008L15.6647 2.98033ZM17.6433 2.56666C17.2293 2.56666 16.8612 2.56549 16.5632 2.6039C16.2482 2.64449 15.9333 2.73725 15.6647 2.98033L16.4699 3.87008C16.487 3.85461 16.53 3.81809 16.7166 3.79405C16.9201 3.76782 17.1972 3.76666 17.6433 3.76666V2.56666ZM20.3567 2.56666H17.6433V3.76666H20.3567V2.56666ZM22.3353 2.98033C22.0667 2.73725 21.7518 2.64449 21.4368 2.6039C21.1388 2.56549 20.7708 2.56666 20.3567 2.56666V3.76666C20.8029 3.76666 21.0799 3.76782 21.2835 3.79405C21.47 3.81809 21.513 3.85461 21.5301 3.87008L22.3353 2.98033ZM22.9438 4.90793C22.9026 4.49593 22.8671 4.12957 22.7993 3.83687C22.7275 3.5275 22.6039 3.22342 22.3353 2.98033L21.5301 3.87008C21.5472 3.88554 21.5878 3.92471 21.6303 4.10793C21.6766 4.30783 21.7054 4.58341 21.7498 5.02733L22.9438 4.90793ZM24.7334 19C24.7334 22.1664 22.1665 24.7333 19 24.7333V25.9333C22.8292 25.9333 25.9333 22.8292 25.9333 19H24.7334ZM19 13.2667C22.1665 13.2667 24.7334 15.8336 24.7334 19H25.9333C25.9333 15.1708 22.8292 12.0667 19 12.0667V13.2667ZM13.2667 19C13.2667 15.8336 15.8336 13.2667 19 13.2667V12.0667C15.1708 12.0667 12.0667 15.1708 12.0667 19H13.2667ZM19 24.7333C15.8336 24.7333 13.2667 22.1664 13.2667 19H12.0667C12.0667 22.8292 15.1708 25.9333 19 25.9333V24.7333Z" fill="#33363F"/>
</svg>
