<svg width="24" height="25" viewBox="0 0 24 25" fill="none" xmlns="http://www.w3.org/2000/svg">
<path fill-rule="evenodd" clip-rule="evenodd" d="M5.05847 12.5C5.02618 12.5 5 12.5262 5 12.5585V19.5C5 20.4428 5 20.9142 5.29289 21.2071C5.58579 21.5 6.05719 21.5 7 21.5H17C17.9428 21.5 18.4142 21.5 18.7071 21.2071C19 20.9142 19 20.4428 19 19.5V12.5585C19 12.5262 18.9738 12.5 18.9415 12.5H17.693L17.664 12.5C17.5229 12.5001 17.3461 12.5002 17.1891 12.4827C16.9962 12.4612 16.7417 12.4059 16.4921 12.2329C16.4303 12.19 16.3475 12.1892 16.2846 12.2305C16.0516 12.384 15.807 12.4428 15.6188 12.4692C15.3968 12.5003 15.1352 12.5002 14.9104 12.5L14.8672 12.5H13.3828L13.3471 12.5C13.1695 12.5001 12.9537 12.5003 12.7658 12.4763C12.3376 12.4218 12.1236 12.3945 12.1207 12.3942C11.6786 12.3404 12.3214 12.3404 11.8793 12.3942C11.8764 12.3945 11.6624 12.4218 11.2342 12.4763C11.0463 12.5003 10.8305 12.5001 10.6529 12.5L10.6172 12.5H9.13278L9.08955 12.5C8.86475 12.5002 8.6032 12.5003 8.38121 12.4692C8.19302 12.4428 7.94837 12.384 7.71535 12.2305C7.65252 12.1892 7.56972 12.19 7.50789 12.2329C7.25826 12.4059 7.00385 12.4612 6.81094 12.4827C6.65394 12.5002 6.47706 12.5001 6.33605 12.5L6.307 12.5H5.05847ZM5.93366 11.5C5.43742 11.5 4.9946 11.0553 5.22166 10.6141C5.44333 10.1833 5.8539 9.89007 6.67505 9.30354L9.67505 7.16068C10.7977 6.35877 11.3591 5.95781 12 5.95781C12.6409 5.95781 13.2023 6.35877 14.325 7.16068L17.325 9.30354C18.1461 9.89007 18.5567 10.1833 18.7783 10.6141C19.0054 11.0553 18.5626 11.5 18.0663 11.5H17.693C17.3578 11.5 17.1902 11.5 17.0617 11.411C16.9954 11.365 16.9477 11.3011 16.9009 11.2068C16.8569 11.1183 16.8137 11.0031 16.7567 10.8511L16.7567 10.8511L16.5463 10.2901L16.1132 9.13512L16.1129 9.13439L16.0964 9.0904L16.0964 9.09038C15.8768 8.50476 15.767 8.21195 15.6806 8.23322C15.5943 8.25449 15.6331 8.5648 15.7107 9.18542V9.18543L15.7165 9.23205L15.7166 9.23283L15.8595 10.376V10.376C15.9078 10.7625 15.9383 11.0065 15.891 11.1758C15.8807 11.2127 15.8666 11.2461 15.8482 11.2767C15.8367 11.2958 15.8235 11.3138 15.8084 11.3309C15.6592 11.5 15.3952 11.5 14.8672 11.5H13.3828C12.9624 11.5 12.7523 11.5 12.6105 11.3748C12.5751 11.3436 12.5468 11.3071 12.5237 11.2634C12.4617 11.1468 12.4355 10.9792 12.403 10.7232L12.3905 10.624L12.2104 9.18316L12.2048 9.13805L12.1985 9.08765C12.125 8.50003 12.0883 8.20623 12 8.20623C11.9117 8.20623 11.875 8.50003 11.8015 9.08765L11.7952 9.13805L11.7896 9.18316L11.6095 10.624L11.597 10.7232C11.5645 10.9792 11.5383 11.1468 11.4763 11.2634C11.4532 11.3071 11.4249 11.3436 11.3895 11.3748C11.2477 11.5 11.0376 11.5 10.6172 11.5H9.13278C8.60481 11.5 8.34083 11.5 8.19155 11.3309C8.17649 11.3138 8.16327 11.2958 8.15176 11.2767C8.13338 11.2461 8.11933 11.2127 8.109 11.1758C8.06169 11.0065 8.09218 10.7625 8.1405 10.376L8.1405 10.376L8.2834 9.23283L8.28349 9.23205L8.28932 9.18544L8.28932 9.18543L8.28932 9.18541C8.3669 8.5648 8.40569 8.25449 8.31935 8.23322C8.23302 8.21195 8.12321 8.50477 7.9036 9.0904L7.8871 9.13439L7.88683 9.13512L7.45371 10.2901L7.24333 10.8511C7.18633 11.0031 7.14313 11.1183 7.09914 11.2068C7.05229 11.3011 7.00456 11.365 6.9383 11.411C6.80982 11.5 6.64221 11.5 6.307 11.5H5.93366Z" fill="#7E869E" fill-opacity="0.25"/>
<path d="M4.62127 5.01493C4.80316 4.28737 4.8941 3.92359 5.16536 3.71179C5.43663 3.5 5.8116 3.5 6.56155 3.5H17.4384C18.1884 3.5 18.5634 3.5 18.8346 3.71179C19.1059 3.92359 19.1968 4.28737 19.3787 5.01493L20.8447 10.8787C20.9162 11.1647 20.9519 11.3077 20.8769 11.4039C20.8018 11.5 20.6544 11.5 20.3596 11.5H17.744C17.3856 11.5 17.2064 11.5 17.0736 11.4011C16.9407 11.3023 16.8892 11.1306 16.7862 10.7873L16.0975 8.49155C15.8809 7.76969 15.7726 7.40876 15.6835 7.42642C15.5944 7.44407 15.6319 7.81902 15.7069 8.56892L15.89 10.4005C15.9414 10.9142 15.9671 11.171 15.8182 11.3355C15.6694 11.5 15.4112 11.5 14.895 11.5H13.405C12.9749 11.5 12.7598 11.5 12.617 11.3707C12.4741 11.2415 12.4527 11.0275 12.41 10.5995L12.199 8.49008C12.1267 7.76668 12.0905 7.40499 12 7.40499C11.9095 7.40499 11.8733 7.76668 11.801 8.49007L11.59 10.5995C11.5473 11.0275 11.5259 11.2415 11.383 11.3707C11.2402 11.5 11.0251 11.5 10.595 11.5H9.10499C8.58875 11.5 8.33064 11.5 8.18177 11.3355C8.0329 11.171 8.05858 10.9142 8.10995 10.4005L8.29311 8.56892C8.3681 7.81902 8.40559 7.44407 8.31648 7.42642C8.22737 7.40876 8.11909 7.76969 7.90254 8.49155L7.2138 10.7873C7.11081 11.1306 7.05931 11.3023 6.92645 11.4011C6.79359 11.5 6.61438 11.5 6.25597 11.5H3.64039C3.3456 11.5 3.19821 11.5 3.12314 11.4039C3.04807 11.3077 3.08382 11.1647 3.15532 10.8787L4.62127 5.01493Z" fill="#222222"/>
<path d="M12.5 15.5H11.5C10.3954 15.5 9.5 16.3954 9.5 17.5V21.35C9.5 21.4328 9.56716 21.5 9.65 21.5H14.35C14.4328 21.5 14.5 21.4328 14.5 21.35V17.5C14.5 16.3954 13.6046 15.5 12.5 15.5Z" fill="#222222"/>
</svg>
